<?xml version="1.0" encoding="UTF-8" standalone="no" ?>
<!DOCTYPE svg PUBLIC "-//W3C//DTD SVG 1.1//EN" "http://www.w3.org/Graphics/SVG/1.1/DTD/svg11.dtd">
<svg xmlns="http://www.w3.org/2000/svg" xmlns:xlink="http://www.w3.org/1999/xlink" version="1.1" width="1080" height="1080" viewBox="0 0 1080 1080" xml:space="preserve">
<desc>Created with Fabric.js 5.2.4</desc>
<defs>
</defs>
<g transform="matrix(1 0 0 1 540 540)" id="3772c11c-5421-46a5-b062-2e8091c5c279"  >
</g>
<g transform="matrix(1 0 0 1 540 540)" id="9a7b8dc8-5ac6-46ce-bfbc-7e42b2368c88"  >
<rect style="stroke: none; stroke-width: 1; stroke-dasharray: none; stroke-linecap: butt; stroke-dashoffset: 0; stroke-linejoin: miter; stroke-miterlimit: 4; fill: rgb(255,255,255); fill-rule: nonzero; opacity: 1; visibility: hidden;" vector-effect="non-scaling-stroke"  x="-540" y="-540" rx="0" ry="0" width="1080" height="1080" />
</g>
<g transform="matrix(1 0 0 1 506.96 577.79)" style="" id="41668eb9-8898-49d8-98b6-4e68447bbad4"  >
		<text xml:space="preserve" font-family="Raleway" font-size="171" font-style="normal" font-weight="900" style="stroke: none; stroke-width: 1; stroke-dasharray: none; stroke-linecap: butt; stroke-dashoffset: 0; stroke-linejoin: miter; stroke-miterlimit: 4; fill: rgb(213,85,20); fill-rule: nonzero; opacity: 1; white-space: pre;" ><tspan x="-228.15" y="53.72" >Thugs</tspan></text>
</g>
<g transform="matrix(1 0 0 1 478.22 743.48)" style="" id="01030b1f-6a8a-4fe1-b9e0-fcaa0da4f625"  >
		<text xml:space="preserve" font-family="Alegreya" font-size="134" font-style="normal" font-weight="700" style="stroke: none; stroke-width: 1; stroke-dasharray: none; stroke-linecap: butt; stroke-dashoffset: 0; stroke-linejoin: miter; stroke-miterlimit: 4; fill: rgb(202,87,17); fill-rule: nonzero; opacity: 1; white-space: pre;" ><tspan x="-175.02" y="42.09" >Cloud</tspan></text>
</g>
<g transform="matrix(1.98 0 0 1.04 743.25 738.03)" id="16ffe9ae-ae91-4345-b374-3953dbc82afd"  >
<path style="stroke: rgb(205,93,13); stroke-width: 0; stroke-dasharray: none; stroke-linecap: butt; stroke-dashoffset: 0; stroke-linejoin: miter; stroke-miterlimit: 4; fill: rgb(200,76,13); fill-rule: nonzero; opacity: 1;" vector-effect="non-scaling-stroke"  transform=" translate(-50, -50)" d="M 78.09 20.881 C 78.09 20.881 81.44200000000001 6.4719999999999995 69.602 16.469 L 58.488 36.071 L 19.339 35.68 L 13.755999999999998 44.559 L 48.884 51.205999999999996 L 40.003 67.848 L 30.622 68.576 L 26.32 74.496 L 39.669 77.455 L 47.208 87.06099999999999 L 50.727 80.806 L 47.207 71.2 L 57.762 55.620000000000005 L 80.884 82.25800000000001 L 86.244 73.043 L 67.368 39.757 L 78.09 20.881 z" stroke-linecap="round" />
</g>
</svg>